<?xml version="1.0" encoding="UTF-8" standalone="no"?>
<!-- Created with Inkscape (http://www.inkscape.org/) -->

<svg
   xmlns:dc="http://purl.org/dc/elements/1.1/"
   xmlns:cc="http://creativecommons.org/ns#"
   xmlns:rdf="http://www.w3.org/1999/02/22-rdf-syntax-ns#"
   xmlns:svg="http://www.w3.org/2000/svg"
   xmlns="http://www.w3.org/2000/svg"
   xmlns:xlink="http://www.w3.org/1999/xlink"
   xmlns:sodipodi="http://sodipodi.sourceforge.net/DTD/sodipodi-0.dtd"
   xmlns:inkscape="http://www.inkscape.org/namespaces/inkscape"
   width="468px"
   height="60px"
   id="svg3114"
   version="1.1"
   inkscape:version="0.48.3.1 r9886"
   inkscape:export-filename="/home/batman/projects/Lithography/OptolithiumGui/icons/Banner.png"
   inkscape:export-xdpi="90"
   inkscape:export-ydpi="90"
   sodipodi:docname="Banner.svg">
  <defs
     id="defs3116">
    <radialGradient
       inkscape:collect="always"
       xlink:href="#linearGradient4789"
       id="radialGradient4807"
       cx="24"
       cy="24"
       fx="24"
       fy="24"
       r="20.055117"
       gradientTransform="matrix(1,0,0,0.86702745,0,3.1913412)"
       gradientUnits="userSpaceOnUse" />
    <linearGradient
       id="linearGradient4789">
      <stop
         style="stop-color:#000000;stop-opacity:1;"
         offset="0"
         id="stop4791" />
      <stop
         id="stop4811"
         offset="0.02816901"
         style="stop-color:#fff86a;stop-opacity:1;" />
      <stop
         style="stop-color:#ffffff;stop-opacity:1;"
         offset="1"
         id="stop4793" />
    </linearGradient>
    <filter
       inkscape:collect="always"
       id="filter4079">
      <feGaussianBlur
         inkscape:collect="always"
         stdDeviation="0.99973567"
         id="feGaussianBlur4081" />
    </filter>
    <filter
       id="filter4435"
       style="color-interpolation-filters:sRGB;"
       inkscape:label="Drop Shadow">
      <feFlood
         id="feFlood4437"
         flood-opacity="0.9"
         flood-color="rgb(0,0,0)"
         result="flood" />
      <feComposite
         id="feComposite4439"
         in2="SourceGraphic"
         in="flood"
         operator="in"
         result="composite1" />
      <feGaussianBlur
         id="feGaussianBlur4441"
         in="composite"
         stdDeviation="3"
         result="blur" />
      <feOffset
         id="feOffset4443"
         dx="1.5"
         dy="1.5"
         result="offset" />
      <feComposite
         id="feComposite4445"
         in2="offset"
         in="SourceGraphic"
         operator="over"
         result="composite2" />
    </filter>
    <filter
       inkscape:collect="always"
       id="filter4484">
      <feGaussianBlur
         inkscape:collect="always"
         stdDeviation="0.74132778"
         id="feGaussianBlur4486" />
    </filter>
    <filter
       inkscape:collect="always"
       id="filter4506">
      <feGaussianBlur
         inkscape:collect="always"
         stdDeviation="1.5239752"
         id="feGaussianBlur4508" />
    </filter>
    <filter
       inkscape:collect="always"
       id="filter4520">
      <feGaussianBlur
         inkscape:collect="always"
         stdDeviation="0.74132778"
         id="feGaussianBlur4522" />
    </filter>
    <filter
       inkscape:collect="always"
       id="filter4537">
      <feGaussianBlur
         inkscape:collect="always"
         stdDeviation="0.71632778"
         id="feGaussianBlur4539" />
    </filter>
    <filter
       inkscape:collect="always"
       id="filter4575">
      <feGaussianBlur
         inkscape:collect="always"
         stdDeviation="0.62484228"
         id="feGaussianBlur4577" />
    </filter>
  </defs>
  <sodipodi:namedview
     id="base"
     pagecolor="#ffffff"
     bordercolor="#666666"
     borderopacity="1.0"
     inkscape:pageopacity="0.0"
     inkscape:pageshadow="2"
     inkscape:zoom="3.3736572"
     inkscape:cx="150.67812"
     inkscape:cy="30.467479"
     inkscape:document-units="px"
     inkscape:current-layer="layer1"
     showgrid="false"
     inkscape:window-width="1600"
     inkscape:window-height="813"
     inkscape:window-x="0"
     inkscape:window-y="151"
     inkscape:window-maximized="1" />
  <metadata
     id="metadata3119">
    <rdf:RDF>
      <cc:Work
         rdf:about="">
        <dc:format>image/svg+xml</dc:format>
        <dc:type
           rdf:resource="http://purl.org/dc/dcmitype/StillImage" />
        <dc:title></dc:title>
      </cc:Work>
    </rdf:RDF>
  </metadata>
  <g
     id="layer1"
     inkscape:label="Layer 1"
     inkscape:groupmode="layer">
    <path
       style="font-size:40px;font-style:italic;font-variant:normal;font-weight:bold;font-stretch:normal;line-height:125%;letter-spacing:0px;word-spacing:0px;fill:#b600ca;fill-opacity:1;stroke:none;filter:url(#filter4537);font-family:FreeSans;-inkscape-font-specification:FreeSans Bold Italic"
       d="m 80.107233,5.7056878 c -13.474809,1.147448 -22.69754,19.6160562 -14.1875,30.4687502 8.297527,8.27066 23.3642,2.969189 27.3125,-7.3125 4.115661,-7.592645 3.125749,-19.9111762 -6.46875,-22.5937502 -2.15903,-0.597961 -4.412716,-0.759419 -6.65625,-0.5625 z m 87.374997,2 c -2.22613,10.5214702 -4.47823,21.0374872 -6.6875,31.5625002 6.42989,0.815433 11.967,0.514159 11.27682,-7.463039 1.81115,-8.564997 3.64757,-17.124688 5.44193,-25.6932112 -2.91641,0.82655 -9.32666,-1.838711 -10.03125,1.59375 z m 13.09375,0 c -2.20842,10.5250272 -4.4777,21.0375392 -6.6875,31.5625002 6.43008,0.815473 11.9658,0.513904 11.27972,-7.462422 1.82463,-8.56234 3.64275,-17.12564 5.43903,-25.6938282 -2.91641,0.82655 -9.32666,-1.838711 -10.03125,1.59375 z m 28.46875,0 c -2.23582,10.5216252 -4.50387,21.0364652 -6.71875,31.5625002 6.43229,0.805095 12.00168,0.534011 11.31452,-7.461666 0.54964,-2.739574 1.1982,-11.486384 5.56048,-9.600834 -0.28865,5.724537 -2.44824,11.363029 -3.3125,17.0625 6.43048,0.815558 11.96328,0.513366 11.28583,-7.46112 1.04379,-5.505222 4.99045,-14.509773 -2.06708,-17.75763 -2.43892,-1.056653 -5.30144,-0.935273 -7.71875,0.09375 3.60465,-7.5890882 -0.008,-9.3437052 -7.375,-8.0312502 -1.1444,-0.486304 -0.64386,1.064942 -0.96875,1.59375 z m 26.4375,0 c -2.20842,10.5250272 -4.4777,21.0375392 -6.6875,31.5625002 6.43008,0.815473 11.9658,0.513904 11.27972,-7.462422 1.82463,-8.56234 3.64275,-17.12564 5.43903,-25.6938282 -2.91641,0.82655 -9.32666,-1.838711 -10.03125,1.59375 z m -109.21875,2.1875 c -0.27269,4.5811562 -7.56885,7.1573962 -4.28125,11.9375002 3.88422,0.647224 -1.14542,8.333826 -0.71875,11.875 -1.06611,6.411957 7.08869,7.725376 11.5625,5.6875 3.86133,-7.84224 -2.74907,-6.062919 -0.4784,-12.425771 0.12356,-6.504648 6.66793,-5.152621 5.82215,-12.855479 -5.26388,-0.176051 0.44785,-9.2721162 -9.34375,-5.7812502 -1.54266,0.04491 -2.65661,-0.574132 -2.5625,1.5625 z m 67.625,0 c -0.25495,4.5896422 -7.60712,7.1417752 -4.3125,11.9375002 3.8839,0.645427 -1.11695,8.334951 -0.6875,11.875 -1.09952,6.39453 7.09018,7.727605 11.5625,5.71875 3.79981,-7.845836 -2.78573,-6.114234 -0.49505,-12.453952 0.13517,-6.487493 6.66578,-5.179254 5.8388,-12.858548 -5.25636,-0.175157 0.43708,-9.2649992 -9.34375,-5.7812502 -1.54266,0.04491 -2.65661,-0.574132 -2.5625,1.5625 z m -83.34375,3.4687502 c -3.89103,1.038291 -7.7272,-0.08346 -12.187497,0.3125 -2.434077,11.435991 -4.873021,22.871046 -7.28125,34.3125 6.429851,0.815425 11.967227,0.514207 11.276277,-7.463155 0.18391,-2.621956 4.0083,0.909924 6.03622,-0.380595 10.7328,-1.473986 16.52068,-17.618004 8.53125,-25.15625 -1.80753,-1.387552 -4.12401,-1.84296 -6.375,-1.625 z m 38.46875,0.03125 c -10.85758,0.587417 -18.13483,16.107121 -10.5,24.21875 8.17962,6.608013 21.30785,-0.09238 22.5625,-10.09375 2.25196,-6.474387 -2.14031,-14.321902 -9.3125,-14.15625 -0.91446,-0.0547 -1.83828,-0.0693 -2.75,0.03125 z m 136.75,-0.03125 c -3.92292,0.995315 -7.67869,-0.04861 -12.25,0.3125 -1.82268,8.531282 -3.67445,17.056465 -5.46875,25.59375 6.43147,0.80492 12.00682,0.535102 11.30215,-7.464292 1.27652,-2.703193 0.24577,-10.23185 4.7291,-9.848208 -0.61251,5.776445 -2.52653,11.534858 -3.5,17.3125 6.4309,0.815649 11.96061,0.512794 11.29229,-7.459734 1.11099,-2.574384 0.43972,-10.53008 4.77021,-9.759016 -0.92543,5.71296 -2.43336,11.477428 -3.53125,17.21875 6.42968,0.815389 11.96829,0.514432 11.2737,-7.4637 0.86297,-5.454155 5.20986,-14.490629 -1.80495,-17.7863 -3.52066,-1.989438 -7.88232,0.443274 -10.6875,1.09375 -1.65967,-1.472544 -3.94727,-1.969445 -6.125,-1.75 z m -39.09375,1.90625 c -0.34975,7.137691 -5.78972,14.979084 -2.1875,21.875 4.50467,6.015652 12.34057,0.812225 18.21875,2.125 5.20873,-0.934798 3.22501,-10.743907 5.50685,-15.287319 1.27845,-5.614428 4.51986,-12.855132 -4.2881,-10.306431 -6.44011,-0.639415 -3.85107,9.871507 -6.25,14.21875 0.16615,2.09185 -3.22346,5.229353 -4.46875,3.1875 0.6415,-5.831634 2.48641,-11.579783 3.5,-17.40625 -2.91641,0.82655 -9.32666,-1.838711 -10.03125,1.59375 z m -165.906247,-0.5 c 5.708849,-0.574721 5.456464,6.977575 3.65625,10.53125 -0.746792,5.218049 -9.771814,8.576817 -11.625,2.625 -0.815971,-5.079182 1.909734,-13.007225 7.96875,-13.15625 z m 28.406247,7.03125 c 3.19787,0.872459 1.42381,6.018415 0.0625,8.09375 -1.03104,2.734012 -5.27056,2.194096 -4.28125,-1.125 0.0807,-2.517435 1.27326,-6.385649 4.21875,-6.96875 z m 40.4375,0 c 4.05036,0.696555 1.65586,6.961683 -0.1875,9 -2.84212,2.808254 -5.46468,-0.987839 -4.09375,-3.84375 0.46526,-2.14569 1.83612,-4.922389 4.28125,-5.15625 z"
       id="text4527"
       inkscape:connector-curvature="0" />
    <g
       transform="matrix(1.0703573,0,0,1.0703573,4.4361078,3.8439456)"
       id="g3122"
       style="filter:url(#filter4435)">
      <path
         d="M 48,24 C 48,37.254834 37.254834,48 24,48 10.745166,48 0,37.254834 0,24 0,10.745166 10.745166,0 24,0 37.254834,0 48,10.745166 48,24 z"
         sodipodi:ry="24"
         sodipodi:rx="24"
         sodipodi:cy="24"
         sodipodi:cx="24"
         id="path4718"
         style="fill:#000000;fill-opacity:1;stroke:#000000;stroke-width:0.30000001;stroke-linecap:butt;stroke-linejoin:round;stroke-miterlimit:4;stroke-opacity:1;stroke-dasharray:none;stroke-dashoffset:0"
         sodipodi:type="arc" />
      <text
         sodipodi:linespacing="125%"
         id="text6445"
         y="16"
         x="5.3073173"
         style="font-size:40px;font-style:normal;font-weight:normal;line-height:125%;letter-spacing:0px;word-spacing:0px;fill:#000000;fill-opacity:1;stroke:none;font-family:Sans"
         xml:space="preserve"><tspan
           y="16"
           x="5.3073173"
           id="tspan6447"
           sodipodi:role="line" /></text>
      <text
         sodipodi:linespacing="125%"
         id="text6449"
         y="42.692684"
         x="6.5560975"
         style="font-size:40px;font-style:normal;font-weight:normal;line-height:125%;letter-spacing:0px;word-spacing:0px;fill:#000000;fill-opacity:1;stroke:none;font-family:Sans"
         xml:space="preserve"><tspan
           y="42.692684"
           x="6.5560975"
           id="tspan6451"
           sodipodi:role="line" /></text>
      <path
         d="m 43.905117,24 -9.952558,17.238337 -19.905118,0 L 4.094883,24 14.047441,6.761663 l 19.905118,0 z"
         inkscape:randomized="0"
         inkscape:rounded="0"
         inkscape:flatsided="true"
         sodipodi:arg2="0.52359878"
         sodipodi:arg1="0"
         sodipodi:r2="17.238337"
         sodipodi:r1="19.905117"
         sodipodi:cy="24"
         sodipodi:cx="24"
         sodipodi:sides="6"
         id="path4749"
         style="fill:url(#radialGradient4807);fill-opacity:1;stroke:none"
         sodipodi:type="star" />
      <rect
         inkscape:transform-center-y="-0.94434146"
         inkscape:transform-center-x="18.782551"
         style="fill:#fff4f4;fill-opacity:1;stroke:none"
         id="rect4759"
         width="37"
         height="1"
         x="-1.1419388"
         y="-16.546272"
         transform="matrix(-0.5,0.8660254,-0.8660254,-0.5,0,0)" />
      <rect
         transform="matrix(0.5,0.8660254,-0.8660254,0.5,0,0)"
         y="7.4537272"
         x="22.858061"
         height="1"
         width="37"
         id="rect4761"
         style="fill:#fff4f4;fill-opacity:1;stroke:none"
         inkscape:transform-center-x="10.209099"
         inkscape:transform-center-y="15.793995" />
      <rect
         inkscape:transform-center-y="16.738335"
         inkscape:transform-center-x="-8.5734514"
         style="fill:#fff4f4;fill-opacity:1;stroke:none"
         id="rect4763"
         width="37"
         height="1"
         x="14.073451"
         y="40.238335" />
      <rect
         transform="matrix(0.5,-0.8660254,0.8660254,0.5,0,0)"
         y="49.022945"
         x="-18.711159"
         height="1"
         width="37"
         id="rect4765"
         style="fill:#fff4f4;fill-opacity:1;stroke:none"
         inkscape:transform-center-x="-18.78255"
         inkscape:transform-center-y="0.94434189" />
      <rect
         transform="scale(-1,-1)"
         y="-7.7616625"
         x="-33.926548"
         height="1"
         width="37"
         id="rect4769"
         style="fill:#fff4f4;fill-opacity:1;stroke:none"
         inkscape:transform-center-x="8.5734518"
         inkscape:transform-center-y="-16.738337" />
      <rect
         transform="matrix(-0.5,-0.8660254,0.8660254,-0.5,0,0)"
         y="25.022947"
         x="-42.711159"
         height="1"
         width="37"
         id="rect4757"
         style="fill:#ffffff;fill-opacity:1;stroke:none" />
      <path
         transform="matrix(0.78126725,0,0,0.78126725,5.2495861,5.2917585)"
         sodipodi:type="arc"
         style="fill:none;stroke:#0052ab;stroke-width:1.27997172;stroke-linecap:butt;stroke-linejoin:round;stroke-miterlimit:4;stroke-opacity:1;stroke-dasharray:none;stroke-dashoffset:0"
         id="path4410"
         sodipodi:cx="24"
         sodipodi:cy="24"
         sodipodi:rx="24"
         sodipodi:ry="7"
         d="m 48,24 c 0,3.865993 -10.745166,7 -24,7 -13.254834,0 -24,-3.134007 -24,-7 0,-3.865993 10.745166,-7 24,-7 13.254834,0 24,3.134007 24,7 z" />
      <path
         transform="matrix(0.78126725,0,0,0.78126725,6.659092,5.1621588)"
         d="m 7,19 c 0,0.552285 -0.4477153,1 -1,1 -0.5522847,0 -1,-0.447715 -1,-1 0,-0.552285 0.4477153,-1 1,-1 0.5522847,0 1,0.447715 1,1 z"
         sodipodi:ry="1"
         sodipodi:rx="1"
         sodipodi:cy="19"
         sodipodi:cx="6"
         id="path4464"
         style="fill:#0052ab;fill-opacity:1;stroke:#0052ab;stroke-width:0.76798302;stroke-linecap:butt;stroke-linejoin:round;stroke-miterlimit:4;stroke-opacity:1;stroke-dasharray:none;stroke-dashoffset:0"
         sodipodi:type="arc" />
      <path
         transform="matrix(-0.39063363,0.67659728,-0.67659728,-0.39063363,49.589195,17.136872)"
         d="m 48,24 c 0,3.865993 -10.745166,7 -24,7 -13.254834,0 -24,-3.134007 -24,-7 0,-3.865993 10.745166,-7 24,-7 13.254834,0 24,3.134007 24,7 z"
         sodipodi:ry="7"
         sodipodi:rx="24"
         sodipodi:cy="24"
         sodipodi:cx="24"
         id="path4520"
         style="fill:none;stroke:#ff0000;stroke-width:1.27997172;stroke-linecap:butt;stroke-linejoin:round;stroke-miterlimit:4;stroke-opacity:1;stroke-dasharray:none;stroke-dashoffset:0"
         sodipodi:type="arc" />
      <path
         sodipodi:type="arc"
         style="fill:none;stroke:#00900c;stroke-width:1.27997172;stroke-linecap:butt;stroke-linejoin:round;stroke-miterlimit:4;stroke-opacity:1;stroke-dasharray:none;stroke-dashoffset:0"
         id="path4524"
         sodipodi:cx="24"
         sodipodi:cy="24"
         sodipodi:rx="24"
         sodipodi:ry="7"
         d="m 48,24 c 0,3.865993 -10.745166,7 -24,7 -13.254834,0 -24,-3.134007 -24,-7 0,-3.865993 10.745166,-7 24,-7 13.254834,0 24,3.134007 24,7 z"
         transform="matrix(-0.39063363,-0.67659728,0.67659728,-0.39063363,17.112525,49.613542)" />
      <path
         transform="matrix(-0.39063363,-0.67659728,0.67659728,-0.39063363,16.295535,48.457673)"
         d="m 7,19 c 0,0.552285 -0.4477153,1 -1,1 -0.5522847,0 -1,-0.447715 -1,-1 0,-0.552285 0.4477153,-1 1,-1 0.5522847,0 1,0.447715 1,1 z"
         sodipodi:ry="1"
         sodipodi:rx="1"
         sodipodi:cy="19"
         sodipodi:cx="6"
         id="path4526"
         style="fill:#00900c;fill-opacity:1;stroke:#00900c;stroke-width:0.76798308;stroke-linecap:butt;stroke-linejoin:round;stroke-miterlimit:4;stroke-opacity:1;stroke-dasharray:none;stroke-dashoffset:0"
         sodipodi:type="arc" />
      <path
         transform="matrix(1.2500276,0,0,1.2500276,16.475488,-1.000552)"
         d="m 7,19 c 0,0.552285 -0.4477153,1 -1,1 -0.5522847,0 -1,-0.447715 -1,-1 0,-0.552285 0.4477153,-1 1,-1 0.5522847,0 1,0.447715 1,1 z"
         sodipodi:ry="1"
         sodipodi:rx="1"
         sodipodi:cy="19"
         sodipodi:cx="6"
         id="path4464-7-2-7-5-95"
         style="fill:#000000;fill-opacity:1;stroke:#000000;stroke-width:0.1875;stroke-linecap:butt;stroke-linejoin:round;stroke-miterlimit:4;stroke-opacity:1;stroke-dasharray:none;stroke-dashoffset:0"
         sodipodi:type="arc" />
      <path
         inkscape:transform-center-x="1.5157753"
         inkscape:transform-center-y="0.87513433"
         sodipodi:type="arc"
         style="fill:#000000;fill-opacity:1;stroke:#000000;stroke-width:0.1875;stroke-linecap:butt;stroke-linejoin:round;stroke-miterlimit:4;stroke-opacity:1;stroke-dasharray:none;stroke-dashoffset:0"
         id="path4670"
         sodipodi:cx="6"
         sodipodi:cy="19"
         sodipodi:rx="1"
         sodipodi:ry="1"
         d="m 7,19 c 0,0.552285 -0.4477153,1 -1,1 -0.5522847,0 -1,-0.447715 -1,-1 0,-0.552285 0.4477153,-1 1,-1 0.5522847,0 1,0.447715 1,1 z"
         transform="matrix(-1.2500275,0,0,-1.2500275,30.291592,48.551636)" />
      <path
         inkscape:transform-center-x="-1.5157766"
         transform="matrix(0.62501378,1.0825556,-1.0825556,0.62501378,41.978353,6.4305167)"
         d="m 7,19 c 0,0.552285 -0.4477153,1 -1,1 -0.5522847,0 -1,-0.447715 -1,-1 0,-0.552285 0.4477153,-1 1,-1 0.5522847,0 1,0.447715 1,1 z"
         sodipodi:ry="1"
         sodipodi:rx="1"
         sodipodi:cy="19"
         sodipodi:cx="6"
         id="path4672"
         style="fill:#000000;fill-opacity:1;stroke:#000000;stroke-width:0.1875;stroke-linecap:butt;stroke-linejoin:round;stroke-miterlimit:4;stroke-opacity:1;stroke-dasharray:none;stroke-dashoffset:0"
         sodipodi:type="arc"
         inkscape:transform-center-y="0.87513406" />
      <path
         transform="matrix(1.2500276,0,0,1.2500276,16.499834,0.2916481)"
         d="m 7,19 c 0,0.552285 -0.4477153,1 -1,1 -0.5522847,0 -1,-0.447715 -1,-1 0,-0.552285 0.4477153,-1 1,-1 0.5522847,0 1,0.447715 1,1 z"
         sodipodi:ry="1"
         sodipodi:rx="1"
         sodipodi:cy="19"
         sodipodi:cx="6"
         id="path4464-7-2-7"
         style="fill:#ffffff;fill-opacity:1;stroke:#000000;stroke-width:0.1875;stroke-linecap:butt;stroke-linejoin:round;stroke-miterlimit:4;stroke-opacity:1;stroke-dasharray:none;stroke-dashoffset:0"
         sodipodi:type="arc" />
      <path
         sodipodi:type="arc"
         style="fill:#ff0000;fill-opacity:1;stroke:#ff0000;stroke-width:0.76798308;stroke-linecap:butt;stroke-linejoin:round;stroke-miterlimit:4;stroke-opacity:1;stroke-dasharray:none;stroke-dashoffset:0"
         id="path4522"
         sodipodi:cx="6"
         sodipodi:cy="19"
         sodipodi:rx="1"
         sodipodi:ry="1"
         d="m 7,19 c 0,0.552285 -0.4477153,1 -1,1 -0.5522847,0 -1,-0.447715 -1,-1 0,-0.552285 0.4477153,-1 1,-1 0.5522847,0 1,0.447715 1,1 z"
         transform="matrix(-0.39063363,0.67659728,-0.67659728,-0.39063363,48.996679,18.422341)" />
    </g>
    <text
       xml:space="preserve"
       style="font-size:40px;font-style:italic;font-variant:normal;font-weight:bold;font-stretch:normal;line-height:125%;letter-spacing:0px;word-spacing:0px;fill:#000000;fill-opacity:1;stroke:none;font-family:FreeSans;-inkscape-font-specification:FreeSans Bold Italic"
       x="60.390644"
       y="37.277386"
       id="text3245"
       sodipodi:linespacing="125%"><tspan
         sodipodi:role="line"
         id="tspan3247"
         x="60.390644"
         y="37.277386"
         style="letter-spacing:2px;fill:#000000;fill-opacity:1;stroke:none">Optolithium</tspan></text>
    <text
       xml:space="preserve"
       style="font-size:40px;font-style:normal;font-variant:normal;font-weight:normal;font-stretch:normal;line-height:125%;letter-spacing:0px;word-spacing:0px;fill:#000000;fill-opacity:1;stroke:none;font-family:FreeSans;-inkscape-font-specification:FreeSans"
       x="187.3833"
       y="56.464466"
       id="text4541"
       sodipodi:linespacing="125%"><tspan
         sodipodi:role="line"
         id="tspan4543"
         x="187.3833"
         y="56.464466"
         style="font-size:20px;font-style:italic;font-weight:bold;-inkscape-font-specification:Arial Bold Italic;font-family:Arial;font-stretch:normal;font-variant:normal">v 0.1.0</tspan></text>
  </g>
</svg>
