<?xml version="1.0" encoding="UTF-8" standalone="no"?>
<!-- Created with Inkscape (http://www.inkscape.org/) -->

<svg
   xmlns:osb="http://www.openswatchbook.org/uri/2009/osb"
   xmlns:dc="http://purl.org/dc/elements/1.1/"
   xmlns:cc="http://creativecommons.org/ns#"
   xmlns:rdf="http://www.w3.org/1999/02/22-rdf-syntax-ns#"
   xmlns:svg="http://www.w3.org/2000/svg"
   xmlns="http://www.w3.org/2000/svg"
   xmlns:xlink="http://www.w3.org/1999/xlink"
   xmlns:sodipodi="http://sodipodi.sourceforge.net/DTD/sodipodi-0.dtd"
   xmlns:inkscape="http://www.inkscape.org/namespaces/inkscape"
   width="48px"
   height="48px"
   id="svg3825"
   version="1.1"
   inkscape:version="0.48.3.1 r9886"
   inkscape:export-filename="/home/batman/projects/Lithography/OptolithiumGui/icons/PEB.png"
   inkscape:export-xdpi="45"
   inkscape:export-ydpi="45"
   sodipodi:docname="PEB.svg">
  <defs
     id="defs3827">
    <linearGradient
       id="linearGradient7968"
       osb:paint="solid">
      <stop
         style="stop-color:#00f0ff;stop-opacity:1;"
         offset="0"
         id="stop7970" />
    </linearGradient>
    <linearGradient
       inkscape:collect="always"
       id="linearGradient15435">
      <stop
         style="stop-color:#000000;stop-opacity:1;"
         offset="0"
         id="stop15437" />
      <stop
         style="stop-color:#000000;stop-opacity:0;"
         offset="1"
         id="stop15439" />
    </linearGradient>
    <marker
       style="overflow:visible"
       inkscape:stockid="InfiniteLineStart"
       id="InfiniteLineStart"
       refX="0"
       refY="0"
       orient="auto">
      <g
         id="g6983"
         style="fill:#000000"
         transform="translate(-13,0)">
        <circle
           d="M 3.8,0 C 3.8,0.44182781 3.4418278,0.80000001 3,0.80000001 2.5581722,0.80000001 2.2,0.44182781 2.2,0 c 0,-0.44182781 0.3581722,-0.80000001 0.8,-0.80000001 0.4418278,0 0.8,0.3581722 0.8,0.80000001 z"
           id="circle6985"
           r="0.8"
           cy="0"
           cx="3" />
        <circle
           d="M 7.3,0 C 7.3,0.44182781 6.9418278,0.80000001 6.5,0.80000001 6.0581722,0.80000001 5.7,0.44182781 5.7,0 c 0,-0.44182781 0.3581722,-0.80000001 0.8,-0.80000001 0.4418278,0 0.8,0.3581722 0.8,0.80000001 z"
           id="circle6987"
           r="0.8"
           cy="0"
           cx="6.5" />
        <circle
           d="M 10.8,0 C 10.8,0.44182781 10.441828,0.80000001 10,0.80000001 9.5581722,0.80000001 9.2,0.44182781 9.2,0 c 0,-0.44182781 0.3581722,-0.80000001 0.8,-0.80000001 0.441828,0 0.8,0.3581722 0.8,0.80000001 z"
           id="circle6989"
           r="0.8"
           cy="0"
           cx="10" />
      </g>
    </marker>
    <marker
       style="overflow:visible"
       inkscape:stockid="InfiniteLineEnd"
       id="InfiniteLineEnd"
       refX="0"
       refY="0"
       orient="auto">
      <g
         id="g6974"
         style="fill:#000000">
        <circle
           id="circle6976"
           r="0.8"
           cy="0"
           cx="3" />
        <circle
           id="circle6978"
           r="0.8"
           cy="0"
           cx="6.5" />
        <circle
           id="circle6980"
           r="0.8"
           cy="0"
           cx="10" />
      </g>
    </marker>
    <marker
       style="overflow:visible"
       id="DistanceEnd"
       refX="0.0"
       refY="0.0"
       orient="auto"
       inkscape:stockid="DistanceEnd">
      <g
         id="g2301">
        <path
           style="fill:none;stroke:#ffffff;stroke-width:1.15;stroke-linecap:square"
           d="M 0,0 L -2,0"
           id="path2316" />
        <path
           style="fill:#000000;fill-rule:evenodd;stroke:none"
           d="M 0,0 L -13,4 L -9,0 -13,-4 L 0,0 z "
           id="path2312" />
        <path
           style="fill:none;stroke:#000000;stroke-width:1;stroke-linecap:square"
           d="M 0,-4 L 0,40"
           id="path2314" />
      </g>
    </marker>
    <marker
       inkscape:stockid="SemiCircleIn"
       orient="auto"
       refY="0.0"
       refX="0.0"
       id="SemiCircleIn"
       style="overflow:visible">
      <path
         id="path6917"
         d="M -0.37450702,-0.045692580 C -0.37450702,2.7143074 1.8654930,4.9543074 4.6254930,4.9543074 L 4.6254930,-5.0456926 C 1.8654930,-5.0456926 -0.37450702,-2.8056926 -0.37450702,-0.045692580 z "
         style="fill-rule:evenodd;stroke:#000000;stroke-width:1.0pt"
         transform="scale(0.6)" />
    </marker>
    <marker
       inkscape:stockid="RazorWire"
       id="RazorWire"
       refX="0"
       refY="0"
       orient="auto"
       style="overflow:visible">
      <path
         id="path6971"
         transform="scale(0.8,0.8)"
         style="fill:#808080;fill-opacity:1;fill-rule:evenodd;stroke:#000000;stroke-width:0.1pt"
         d="M 0.022727273,-0.74009011 L 0.022727273,0.69740989 L -7.7585227,3.0099099 L 10.678977,3.0099099 L 3.4914773,0.69740989 L 3.4914773,-0.74009011 L 10.741477,-2.8963401 L -7.7272727,-2.8963401 L 0.022727273,-0.74009011 z " />
    </marker>
    <marker
       inkscape:stockid="Legs"
       orient="auto"
       refY="0.0"
       refX="0.0"
       id="Legs"
       style="overflow:visible">
      <g
         id="g6938"
         transform="scale(-0.7)">
        <g
           id="g6940"
           transform="matrix(0,-1.000000,-1.000000,0,20.70862,21.31391)">
          <path
             id="path6942"
             d="M 21.221250,20.675360 C 14.311099,25.396517 18.766725,27.282204 15.380179,34.118595"
             style="fill:none;fill-opacity:0.75000000;fill-rule:evenodd;stroke:#000000;stroke-width:1.0000000pt" />
          <path
             id="path6944"
             d="M 21.398110,20.548120 C 20.037601,28.895644 24.934182,29.318060 25.903151,34.373078"
             style="fill:none;fill-opacity:0.75000000;fill-rule:evenodd;stroke:#000000;stroke-width:1.0000000pt" />
        </g>
        <path
           id="path6946"
           d="M -14.090070,-6.7318716 L -15.012238,-2.6884886 L -11.049487,-3.9115586 L -14.090070,-6.7318716 z "
           style="fill:#030300;fill-rule:evenodd;stroke-width:1.0000000pt" />
        <path
           id="path6948"
           d="M -15.215679,4.5567534 L -13.341552,8.2563664 L -11.074678,4.7835114 L -15.215679,4.5567534 z "
           style="fill:#030300;fill-rule:evenodd;stroke-width:1.0000000pt" />
      </g>
    </marker>
    <marker
       inkscape:stockid="Arrow1Mend"
       orient="auto"
       refY="0.0"
       refX="0.0"
       id="Arrow1Mend"
       style="overflow:visible;">
      <path
         id="path6748"
         d="M 0.0,0.0 L 5.0,-5.0 L -12.5,0.0 L 5.0,5.0 L 0.0,0.0 z "
         style="fill-rule:evenodd;stroke:#000000;stroke-width:1.0pt;"
         transform="scale(0.4) rotate(180) translate(10,0)" />
    </marker>
    <linearGradient
       id="linearGradient6389"
       osb:paint="solid">
      <stop
         style="stop-color:#5edd00;stop-opacity:1;"
         offset="0"
         id="stop6391" />
    </linearGradient>
    <inkscape:path-effect
       effect="envelope"
       id="path-effect6368"
       is_visible="true"
       yy="true"
       xx="true"
       bendpath1="m 14.362692,21.5 c 6.391961,1.494955 11.760201,0.737725 17.137308,0"
       bendpath2="m 31.5,21.5 0,22"
       bendpath3="m 14.362692,43.5 c 6.195979,1.692402 11.768799,1.203746 17.137308,0"
       bendpath4="m 14.362692,21.5 0,22"
       bendpath1-nodetypes="cc"
       bendpath3-nodetypes="cc" />
    <linearGradient
       id="linearGradient6345">
      <stop
         style="stop-color:#d51438;stop-opacity:1;"
         offset="0"
         id="stop6347" />
      <stop
         style="stop-color:#0031ff;stop-opacity:0;"
         offset="1"
         id="stop6349" />
    </linearGradient>
    <linearGradient
       inkscape:collect="always"
       xlink:href="#linearGradient6345"
       id="linearGradient6351"
       x1="15.027621"
       y1="33"
       x2="33.164928"
       y2="33"
       gradientUnits="userSpaceOnUse" />
    <filter
       id="filter6548"
       inkscape:label="Darken edges"
       inkscape:menu="Shadows and Glows"
       inkscape:menu-tooltip="Darken the edges with an inner blur"
       color-interpolation-filters="sRGB">
      <feGaussianBlur
         id="feGaussianBlur6550"
         result="result6"
         stdDeviation="1.5" />
      <feComposite
         id="feComposite6552"
         in2="result6"
         operator="atop"
         in="SourceGraphic"
         result="result8" />
      <feComposite
         id="feComposite6554"
         in2="SourceAlpha"
         in="result8"
         operator="atop"
         result="result9" />
    </filter>
    <filter
       id="filter6556"
       inkscape:label="Darken edges"
       inkscape:menu="Shadows and Glows"
       inkscape:menu-tooltip="Darken the edges with an inner blur"
       color-interpolation-filters="sRGB">
      <feGaussianBlur
         id="feGaussianBlur6558"
         result="result6"
         stdDeviation="1.5" />
      <feComposite
         id="feComposite6560"
         in2="result6"
         operator="atop"
         in="SourceGraphic"
         result="result8" />
      <feComposite
         id="feComposite6562"
         in2="SourceAlpha"
         in="result8"
         operator="atop"
         result="result9" />
    </filter>
    <filter
       id="filter6564"
       inkscape:label="Darken edges"
       inkscape:menu="Shadows and Glows"
       inkscape:menu-tooltip="Darken the edges with an inner blur"
       color-interpolation-filters="sRGB">
      <feGaussianBlur
         id="feGaussianBlur6566"
         result="result6"
         stdDeviation="1.5" />
      <feComposite
         id="feComposite6568"
         in2="result6"
         operator="atop"
         in="SourceGraphic"
         result="result8" />
      <feComposite
         id="feComposite6570"
         in2="SourceAlpha"
         in="result8"
         operator="atop"
         result="result9" />
    </filter>
    <filter
       id="filter6572"
       inkscape:label="Darken edges"
       inkscape:menu="Shadows and Glows"
       inkscape:menu-tooltip="Darken the edges with an inner blur"
       color-interpolation-filters="sRGB">
      <feGaussianBlur
         id="feGaussianBlur6574"
         result="result6"
         stdDeviation="1.5" />
      <feComposite
         id="feComposite6576"
         in2="result6"
         operator="atop"
         in="SourceGraphic"
         result="result8" />
      <feComposite
         id="feComposite6578"
         in2="SourceAlpha"
         in="result8"
         operator="atop"
         result="result9" />
    </filter>
    <clipPath
       clipPathUnits="userSpaceOnUse"
       id="clipPath13272">
      <path
         style="fill:none;stroke:#000000;stroke-width:1.69312334px;stroke-linecap:butt;stroke-linejoin:miter;stroke-opacity:1"
         d="M 0,48 43,48 43,4 0,4 z"
         id="path13274"
         inkscape:connector-curvature="0" />
    </clipPath>
    <clipPath
       clipPathUnits="userSpaceOnUse"
       id="clipPath13276">
      <path
         style="fill:none;stroke:#000000;stroke-width:1.69312334px;stroke-linecap:butt;stroke-linejoin:miter;stroke-opacity:1"
         d="M 0,48 43,48 43,4 0,4 z"
         id="path13278"
         inkscape:connector-curvature="0" />
    </clipPath>
    <clipPath
       clipPathUnits="userSpaceOnUse"
       id="clipPath13280">
      <path
         style="fill:none;stroke:#000000;stroke-width:1.69312334px;stroke-linecap:butt;stroke-linejoin:miter;stroke-opacity:1"
         d="M 0,48 43,48 43,4 0,4 z"
         id="path13282"
         inkscape:connector-curvature="0" />
    </clipPath>
    <clipPath
       clipPathUnits="userSpaceOnUse"
       id="clipPath13284">
      <path
         style="fill:none;stroke:#000000;stroke-width:1.69312334px;stroke-linecap:butt;stroke-linejoin:miter;stroke-opacity:1"
         d="M 0,48 43,48 43,4 0,4 z"
         id="path13286"
         inkscape:connector-curvature="0" />
    </clipPath>
    <clipPath
       clipPathUnits="userSpaceOnUse"
       id="clipPath13288">
      <path
         style="fill:none;stroke:#000000;stroke-width:1.69312334px;stroke-linecap:butt;stroke-linejoin:miter;stroke-opacity:1"
         d="M 0,48 43,48 43,4 0,4 z"
         id="path13290"
         inkscape:connector-curvature="0" />
    </clipPath>
    <filter
       id="filter13300"
       inkscape:label="Darken edges"
       inkscape:menu="Shadows and Glows"
       inkscape:menu-tooltip="Darken the edges with an inner blur"
       color-interpolation-filters="sRGB">
      <feGaussianBlur
         id="feGaussianBlur13302"
         result="result6"
         stdDeviation="1.5" />
      <feComposite
         id="feComposite13304"
         in2="result6"
         operator="atop"
         in="SourceGraphic"
         result="result8" />
      <feComposite
         id="feComposite13306"
         in2="SourceAlpha"
         in="result8"
         operator="atop"
         result="result9" />
    </filter>
    <filter
       id="filter13308"
       inkscape:label="Darken edges"
       inkscape:menu="Shadows and Glows"
       inkscape:menu-tooltip="Darken the edges with an inner blur"
       color-interpolation-filters="sRGB">
      <feGaussianBlur
         id="feGaussianBlur13310"
         result="result6"
         stdDeviation="1.5" />
      <feComposite
         id="feComposite13312"
         in2="result6"
         operator="atop"
         in="SourceGraphic"
         result="result8" />
      <feComposite
         id="feComposite13314"
         in2="SourceAlpha"
         in="result8"
         operator="atop"
         result="result9" />
    </filter>
    <filter
       id="filter13316"
       inkscape:label="Darken edges"
       inkscape:menu="Shadows and Glows"
       inkscape:menu-tooltip="Darken the edges with an inner blur"
       color-interpolation-filters="sRGB">
      <feGaussianBlur
         id="feGaussianBlur13318"
         result="result6"
         stdDeviation="1.5" />
      <feComposite
         id="feComposite13320"
         in2="result6"
         operator="atop"
         in="SourceGraphic"
         result="result8" />
      <feComposite
         id="feComposite13322"
         in2="SourceAlpha"
         in="result8"
         operator="atop"
         result="result9" />
    </filter>
    <linearGradient
       inkscape:collect="always"
       xlink:href="#linearGradient15435"
       id="linearGradient15441"
       x1="7.9506836"
       y1="37.518555"
       x2="40.049316"
       y2="37.518555"
       gradientUnits="userSpaceOnUse" />
    <filter
       id="filter15443"
       inkscape:label="Darken edges"
       inkscape:menu="Shadows and Glows"
       inkscape:menu-tooltip="Darken the edges with an inner blur"
       color-interpolation-filters="sRGB">
      <feGaussianBlur
         id="feGaussianBlur15445"
         result="result6"
         stdDeviation="1.5" />
      <feComposite
         id="feComposite15447"
         in2="result6"
         operator="atop"
         in="SourceGraphic"
         result="result8" />
      <feComposite
         id="feComposite15449"
         in2="SourceAlpha"
         in="result8"
         operator="atop"
         result="result9" />
    </filter>
    <filter
       id="filter15451"
       inkscape:label="Darken edges"
       inkscape:menu="Shadows and Glows"
       inkscape:menu-tooltip="Darken the edges with an inner blur"
       color-interpolation-filters="sRGB">
      <feGaussianBlur
         id="feGaussianBlur15453"
         result="result6"
         stdDeviation="1.5" />
      <feComposite
         id="feComposite15455"
         in2="result6"
         operator="atop"
         in="SourceGraphic"
         result="result8" />
      <feComposite
         id="feComposite15457"
         in2="SourceAlpha"
         in="result8"
         operator="atop"
         result="result9" />
    </filter>
    <filter
       id="filter7974"
       inkscape:label="Darken edges"
       inkscape:menu="Shadows and Glows"
       inkscape:menu-tooltip="Darken the edges with an inner blur"
       color-interpolation-filters="sRGB">
      <feGaussianBlur
         id="feGaussianBlur7976"
         result="result6"
         stdDeviation="1.5" />
      <feComposite
         id="feComposite7978"
         in2="result6"
         operator="atop"
         in="SourceGraphic"
         result="result8" />
      <feComposite
         id="feComposite7980"
         in2="SourceAlpha"
         in="result8"
         operator="atop"
         result="result9" />
    </filter>
    <filter
       id="filter11069"
       inkscape:label="Darken edges"
       inkscape:menu="Shadows and Glows"
       inkscape:menu-tooltip="Darken the edges with an inner blur"
       color-interpolation-filters="sRGB">
      <feGaussianBlur
         id="feGaussianBlur11071"
         result="result6"
         stdDeviation="1.5" />
      <feComposite
         id="feComposite11073"
         in2="result6"
         operator="atop"
         in="SourceGraphic"
         result="result8" />
      <feComposite
         id="feComposite11075"
         in2="SourceAlpha"
         in="result8"
         operator="atop"
         result="result9" />
    </filter>
    <filter
       inkscape:collect="always"
       id="filter11304">
      <feGaussianBlur
         inkscape:collect="always"
         stdDeviation="0.15162323"
         id="feGaussianBlur11306" />
    </filter>
    <filter
       inkscape:collect="always"
       id="filter11308">
      <feGaussianBlur
         inkscape:collect="always"
         stdDeviation="0.15162323"
         id="feGaussianBlur11310" />
    </filter>
    <filter
       inkscape:collect="always"
       id="filter11312">
      <feGaussianBlur
         inkscape:collect="always"
         stdDeviation="0.15162323"
         id="feGaussianBlur11314" />
    </filter>
  </defs>
  <sodipodi:namedview
     id="base"
     pagecolor="#ffffff"
     bordercolor="#666666"
     borderopacity="1.0"
     inkscape:pageopacity="0.0"
     inkscape:pageshadow="2"
     inkscape:zoom="12.8125"
     inkscape:cx="24"
     inkscape:cy="20.878049"
     inkscape:current-layer="layer1"
     showgrid="true"
     inkscape:grid-bbox="true"
     inkscape:document-units="px"
     inkscape:snap-global="true"
     inkscape:window-width="1600"
     inkscape:window-height="813"
     inkscape:window-x="0"
     inkscape:window-y="151"
     inkscape:window-maximized="1"
     inkscape:snap-bbox="true"
     inkscape:snap-page="true"
     inkscape:snap-center="true"
     showguides="true"
     inkscape:guide-bbox="true">
    <inkscape:grid
       type="xygrid"
       id="grid3863" />
  </sodipodi:namedview>
  <metadata
     id="metadata3830">
    <rdf:RDF>
      <cc:Work
         rdf:about="">
        <dc:format>image/svg+xml</dc:format>
        <dc:type
           rdf:resource="http://purl.org/dc/dcmitype/StillImage" />
        <dc:title />
      </cc:Work>
    </rdf:RDF>
  </metadata>
  <g
     id="layer1"
     inkscape:label="Layer 1"
     inkscape:groupmode="layer">
    <rect
       style="fill:#aa00bd;fill-opacity:1;stroke:#000000;stroke-width:0.29724666;stroke-linecap:butt;stroke-linejoin:round;stroke-miterlimit:4;stroke-opacity:1;stroke-dasharray:none;stroke-dashoffset:0;filter:url(#filter11069)"
       id="rect3082-8"
       width="44"
       height="7.3615088"
       x="2"
       y="24.53521"
       transform="matrix(1,0,0,1.426339,0,-6.9955263)"
       ry="0.70109552" />
    <rect
       style="fill:#000000;fill-opacity:1;stroke:#000000;stroke-width:0.35499999999999998;stroke-linecap:butt;stroke-linejoin:round;stroke-miterlimit:4;stroke-opacity:1;stroke-dasharray:none;stroke-dashoffset:0"
       id="rect3082-3"
       width="9.8241768"
       height="8.5534286"
       x="38.087914"
       y="-28.276714"
       transform="matrix(0,1,-1,0,0,0)" />
    <text
       xml:space="preserve"
       style="font-size:40px;font-style:normal;font-weight:normal;line-height:125%;letter-spacing:0px;word-spacing:0px;fill:#000000;fill-opacity:1;stroke:none;font-family:Sans"
       x="5.3073173"
       y="16"
       id="text6445"
       sodipodi:linespacing="125%"><tspan
         sodipodi:role="line"
         id="tspan6447"
         x="5.3073173"
         y="16" /></text>
    <text
       xml:space="preserve"
       style="font-size:40px;font-style:normal;font-weight:normal;line-height:125%;letter-spacing:0px;word-spacing:0px;fill:#000000;fill-opacity:1;stroke:none;font-family:Sans"
       x="6.5560975"
       y="42.692684"
       id="text6449"
       sodipodi:linespacing="125%"><tspan
         sodipodi:role="line"
         id="tspan6451"
         x="6.5560975"
         y="42.692684" /></text>
    <path
       style="fill:#ce0000;fill-opacity:1;stroke:#000000;stroke-width:0.30000001;stroke-linecap:butt;stroke-linejoin:miter;stroke-miterlimit:1;stroke-opacity:1;stroke-dasharray:none;stroke-dashoffset:0;filter:url(#filter11304)"
       id="path11065"
       d="m 6.3948331,20.986667 c -0.02834,-0.01809 -0.05435,-0.03985 -0.08164,-0.0599 -0.04389,-0.03815 -0.08827,-0.07536 -0.129268,-0.116688 -0.06083,-0.05677 -0.117349,-0.118011 -0.171753,-0.180898 -0.07167,-0.08112 -0.136264,-0.16817 -0.200054,-0.255525 -0.07524,-0.102379 -0.14764,-0.206726 -0.217413,-0.312893 -0.08049,-0.120459 -0.153097,-0.245791 -0.222903,-0.372654 -0.07727,-0.139235 -0.146777,-0.282527 -0.214545,-0.426558 -0.06984,-0.15052 -0.131751,-0.304534 -0.190494,-0.459666 -0.0601,-0.155842 -0.111009,-0.314887 -0.157115,-0.475352 -0.04607,-0.155911 -0.07401,-0.315882 -0.0926,-0.477122 -0.01785,-0.154095 -0.01621,-0.309166 -0.0057,-0.463635 0.0104,-0.157214 0.04713,-0.309827 0.0975,-0.458533 0.05251,-0.151697 0.13116,-0.291198 0.21804,-0.425396 0.09341,-0.144801 0.209499,-0.272135 0.331915,-0.392583 0.133111,-0.13184 0.281819,-0.245382 0.43625,-0.350757 0.169805,-0.113839 0.351635,-0.207793 0.533561,-0.30037 0.188162,-0.09518 0.380169,-0.182408 0.572749,-0.268189 0.19716,-0.08721 0.397591,-0.166723 0.598667,-0.244378 0.201133,-0.07692 0.404035,-0.14909 0.60728,-0.220204 0.201697,-0.07011 0.403592,-0.13964 0.605479,-0.209197 0.202709,-0.06964 0.404742,-0.141228 0.606629,-0.213211 0.198291,-0.06913 0.392891,-0.147864 0.584569,-0.233491 0.1851089,-0.08241 0.3620189,-0.181081 0.5349849,-0.286222 0.155171,-0.09373 0.298512,-0.204269 0.433489,-0.324854 0.109756,-0.09823 0.194354,-0.21698 0.2631,-0.346272 0.05754,-0.110857 0.07488,-0.230558 0.07083,-0.353765 -0.009,-0.130458 -0.05247,-0.252867 -0.107477,-0.370216 -0.06617,-0.133415 -0.155529,-0.252142 -0.249399,-0.366889 C 10.745032,11.887711 10.619047,11.775483 10.48831,11.668675 10.333076,11.545652 10.165815,11.439178 9.9958511,11.337949 9.8004661,11.225627 9.5973071,11.127655 9.3935661,11.031622 9.1731261,10.928034 8.9506211,10.828929 8.7264481,10.733714 8.4854401,10.632598 8.2422171,10.536913 7.9997411,10.439403 7.7488651,10.336151 7.4954901,10.23927 7.2419101,10.142936 6.9787531,10.044186 6.7146091,9.9480934 6.4503341,9.8523902 6.1827921,9.7592006 5.9173821,9.6604844 5.6552001,9.5531468 5.4106331,9.4540676 5.1747691,9.335422 4.9460091,9.2042648 4.7552721,9.0949985 4.5755411,8.9686596 4.4126621,8.821144 4.2886761,8.7085038 4.1936281,8.5722472 4.1235701,8.4209832 c -0.05547,-0.123311 -0.06292,-0.255966 -0.05461,-0.388777 0.009,-0.120964 0.04839,-0.23459 0.09853,-0.343923 0.0566,-0.120035 0.138714,-0.223712 0.227936,-0.320793 0.108019,-0.113693 0.233689,-0.207318 0.362539,-0.295699 0.155156,-0.103897 0.323852,-0.184574 0.494157,-0.260025 0.201511,-0.08771 0.410523,-0.156156 0.619839,-0.222374 0.228288,-0.07073 0.459116,-0.132856 0.690229,-0.193575 0.236919,-0.06209 0.47509,-0.119208 0.713436,-0.175512 0.234257,-0.05489 0.468719,-0.108903 0.702781,-0.164616 0.233429,-0.05478 0.464997,-0.116903 0.695812,-0.181698 0.229344,-0.06419 0.457187,-0.133537 0.684492,-0.204558 0.226379,-0.07055 0.450625,-0.147485 0.6733519,-0.228758 0.220854,-0.08046 0.438321,-0.169651 0.654499,-0.261817 0.205641,-0.08689 0.408017,-0.180889 0.606984,-0.282067 0.167113,-0.0835 0.324889,-0.183009 0.470809,-0.299436 0.108099,-0.08739 0.198134,-0.19273 0.269675,-0.311453 0.05685,-0.09679 0.07642,-0.203551 0.08059,-0.314026 -1.12e-4,-0.114348 -0.03084,-0.223437 -0.08073,-0.32539 -0.06676,-0.126299 -0.156103,-0.238243 -0.25238,-0.343017 -0.124157,-0.129178 -0.26306,-0.24292 -0.402508,-0.354974 -0.159179,-0.127718 -0.324811,-0.246983 -0.492462,-0.363236 -0.185589,-0.124618 -0.375083,-0.24332 -0.566563,-0.358644 -0.208659,-0.125378 -0.4221739,-0.242314 -0.6374439,-0.355864 -0.231344,-0.123784 -0.466372,-0.240404 -0.70251,-0.354703 -0.254695,-0.123225 -0.51312,-0.238361 -0.772904,-0.350366 -0.04591,-0.01952 -0.09183,-0.03903 -0.137745,-0.05855 0,0 2.1901709,-0.25563309 2.1901709,-0.25563309 l 0,0 c 0.04538,0.02004 0.09076,0.04008 0.136145,0.06013 0.257152,0.11584999 0.513081,0.23449299 0.765384,0.36062299 0.234404,0.117443 0.46734,0.237813 0.697379,0.363628 0.213059,0.117971 0.42398,0.239823 0.630455,0.36904 0.190275,0.119885 0.379682,0.241471 0.561618,0.373818 0.166149,0.121715 0.330258,0.246401 0.486711,0.380485 0.140576,0.122009 0.27894,0.247855 0.394467,0.394585 0.09683,0.127146 0.18791,0.259919 0.245774,0.410012 0.04608,0.134234 0.07972,0.272363 0.07804,0.415372 -0.0044,0.140099 -0.02377,0.279017 -0.07946,0.408966 -0.06515,0.144636 -0.149648,0.27767 -0.261327,0.391491 -0.138769,0.135567 -0.289112,0.257417 -0.459691,0.351492 -0.195839,0.109821 -0.395808,0.21181 -0.602324,0.300248 -0.215879,0.09575 -0.432652,0.189651 -0.65347,0.273553 -0.223165,0.08523 -0.447623,0.167081 -0.675419,0.239219 -0.226994,0.07383 -0.454965,0.144661 -0.68406,0.211713 -0.231636,0.06639 -0.463165,0.133334 -0.697363,0.190273 -0.2334339,0.05698 -0.4673919,0.111742 -0.7014529,0.166086 -0.237851,0.05554 -0.475735,0.111034 -0.712557,0.170847 -0.232172,0.05875 -0.464055,0.1187 -0.694514,0.183906 -0.210974,0.06093 -0.421224,0.12496 -0.627641,0.200088 -0.171397,0.06551 -0.341738,0.134776 -0.503281,0.222388 -0.129256,0.07333 -0.255544,0.153087 -0.369024,0.249543 -0.08711,0.07454 -0.171191,0.153513 -0.233259,0.250949 -0.04701,0.07979 -0.08837,0.162507 -0.0977,0.256187 -0.0067,0.09657 0.0069,0.184355 0.06194,0.266786 0.08272,0.123155 0.186306,0.228084 0.305558,0.316655 0.173981,0.1275062 0.357613,0.2409714 0.549263,0.3401484 0.233773,0.1191139 0.472352,0.2284802 0.717667,0.3219088 0.263938,0.1016472 0.530316,0.1965698 0.796297,0.2927034 0.263447,0.09646 0.526727,0.1934258 0.788417,0.294579 0.25297,0.09763 0.504781,0.1981803 0.7558259,0.3006613 0.241417,0.09778 0.482824,0.195688 0.721164,0.300814 0.222478,0.09897 0.444025,0.200151 0.662515,0.307693 0.203349,0.101739 0.405782,0.206276 0.596372,0.330804 0.16912,0.111934 0.336012,0.228208 0.485537,0.365907 0.129856,0.121705 0.251505,0.251581 0.35691,0.395387 0.09565,0.132272 0.183853,0.270628 0.24621,0.422132 0.0555,0.144776 0.09892,0.294051 0.105478,0.450072 0.0037,0.154899 -0.01157,0.308288 -0.06965,0.453547 -0.06376,0.153748 -0.146229,0.298672 -0.257882,0.423232 -0.128537,0.139226 -0.271014,0.264059 -0.427911,0.370774 -0.171577,0.115624 -0.348091,0.224076 -0.534044,0.315301 -0.191257,0.09328 -0.385599,0.180107 -0.585638,0.253062 -0.201551,0.07396 -0.403934,0.145635 -0.606603,0.216472 -0.201832,0.06973 -0.404003,0.138481 -0.605631,0.208804 -0.202507,0.06965 -0.4047349,0.140136 -0.6057079,0.214121 -0.200964,0.07486 -0.401142,0.151833 -0.599232,0.234048 -0.19279,0.08146 -0.383898,0.166982 -0.572811,0.257082 -0.181261,0.08748 -0.362176,0.176241 -0.537043,0.276045 -0.153994,0.09241 -0.305496,0.190061 -0.43929,0.310744 -0.119728,0.106674 -0.238436,0.215603 -0.334766,0.344688 -0.08383,0.117147 -0.166143,0.236461 -0.218394,0.371768 -0.05021,0.128274 -0.08779,0.260681 -0.09689,0.398895 -0.01041,0.140532 -0.0112,0.281762 0.0076,0.421741 0.02023,0.149705 0.05036,0.297666 0.09599,0.441896 0.04698,0.154516 0.09793,0.30781 0.156929,0.458209 0.0584,0.149753 0.119766,0.298408 0.188841,0.443606 0.06619,0.13934 0.134129,0.277899 0.209153,0.412749 0.06793,0.121203 0.138915,0.240669 0.216052,0.356291 0.06815,0.102212 0.13768,0.203514 0.210248,0.302657 0.06027,0.08122 0.121782,0.161609 0.190265,0.236177 0.05153,0.05592 0.104011,0.110923 0.160249,0.162177 0.03941,0.03357 0.07829,0.068 0.119978,0.09871 0.02463,0.02041 0.05049,0.03909 0.07424,0.06033 0,0 -2.095346,0.191152 -2.095346,0.191152 z"
       inkscape:connector-curvature="0"
       transform="matrix(0.99880416,0,0,1.1115772,-0.33120722,1.9988851)" />
    <path
       style="fill:#ce0000;fill-opacity:1;stroke:#000000;stroke-width:0.30000001;stroke-linecap:butt;stroke-linejoin:miter;stroke-miterlimit:1;stroke-opacity:1;stroke-dasharray:none;stroke-dashoffset:0;filter:url(#filter11308)"
       id="path11065-4"
       d="m 21.989255,21.430273 c -0.02834,-0.01809 -0.05435,-0.03985 -0.08164,-0.0599 -0.04389,-0.03815 -0.08827,-0.07536 -0.129268,-0.116688 -0.06083,-0.05677 -0.117349,-0.118011 -0.171753,-0.180898 -0.07167,-0.08112 -0.136264,-0.16817 -0.200054,-0.255525 -0.07524,-0.102379 -0.14764,-0.206726 -0.217413,-0.312893 -0.08049,-0.120459 -0.153097,-0.245791 -0.222903,-0.372654 -0.07727,-0.139235 -0.146777,-0.282527 -0.214545,-0.426558 -0.06984,-0.15052 -0.131751,-0.304534 -0.190494,-0.459666 -0.0601,-0.155842 -0.111009,-0.314887 -0.157115,-0.475352 -0.04607,-0.155911 -0.07401,-0.315882 -0.0926,-0.477122 -0.01785,-0.154095 -0.01621,-0.309166 -0.0057,-0.463635 0.0104,-0.157214 0.04713,-0.309827 0.0975,-0.458533 0.05251,-0.151697 0.13116,-0.291198 0.21804,-0.425396 0.09341,-0.144801 0.209499,-0.272135 0.331915,-0.392583 0.133111,-0.13184 0.281819,-0.245382 0.43625,-0.350757 0.169805,-0.113839 0.351635,-0.207793 0.533561,-0.30037 0.188162,-0.09518 0.380169,-0.182408 0.572749,-0.268189 0.19716,-0.08721 0.397591,-0.166723 0.598667,-0.244378 0.201133,-0.07692 0.404035,-0.14909 0.60728,-0.220204 0.201697,-0.07011 0.403592,-0.13964 0.605479,-0.209197 0.202709,-0.06964 0.404742,-0.141228 0.606629,-0.213211 0.198291,-0.06913 0.392891,-0.147864 0.584569,-0.233491 0.185109,-0.08241 0.362019,-0.181081 0.534985,-0.286222 0.155171,-0.09373 0.298512,-0.204269 0.433489,-0.324854 0.109756,-0.09823 0.194354,-0.21698 0.2631,-0.346272 0.05754,-0.110857 0.07488,-0.230558 0.07083,-0.353765 -0.009,-0.130458 -0.05247,-0.252867 -0.107477,-0.370216 -0.06617,-0.133415 -0.155529,-0.252142 -0.249399,-0.366889 C 26.339454,12.331317 26.213469,12.219089 26.082732,12.112281 25.927498,11.989258 25.760237,11.882784 25.590273,11.781555 25.394888,11.669233 25.191729,11.571261 24.987988,11.475228 24.767548,11.37164 24.545043,11.272535 24.32087,11.17732 24.079862,11.076205 23.836639,10.98052 23.594163,10.883011 23.343287,10.779759 23.089912,10.682878 22.836332,10.586543 22.573175,10.487793 22.309031,10.3917 22.044756,10.295995 21.777214,10.202805 21.511804,10.104088 21.249622,9.9967494 21.005055,9.8976698 20.769191,9.7790266 20.540431,9.6478694 20.349694,9.5386038 20.169963,9.4122656 20.007084,9.2647494 19.883098,9.1521085 19.78805,9.0158519 19.717992,8.8645876 c -0.05547,-0.1233102 -0.06292,-0.2559644 -0.05461,-0.3887754 0.009,-0.120964 0.04839,-0.23459 0.09853,-0.343923 0.0566,-0.120035 0.138714,-0.223712 0.227936,-0.320793 0.108019,-0.113693 0.233689,-0.207318 0.362539,-0.295699 0.155156,-0.103897 0.323852,-0.184574 0.494157,-0.260025 0.201511,-0.08771 0.410523,-0.156156 0.619839,-0.222374 0.228288,-0.07073 0.459116,-0.132856 0.690229,-0.193575 0.236919,-0.06209 0.47509,-0.119208 0.713436,-0.175512 0.234257,-0.05489 0.468719,-0.108903 0.702781,-0.164616 0.233429,-0.05478 0.464997,-0.116903 0.695812,-0.181698 0.229344,-0.06419 0.457187,-0.133537 0.684492,-0.204558 0.226379,-0.07055 0.450625,-0.147485 0.673352,-0.228758 0.220854,-0.08046 0.438321,-0.169651 0.654499,-0.261817 0.205641,-0.08689 0.408017,-0.180889 0.606984,-0.282067 0.167113,-0.0835 0.324889,-0.183009 0.470809,-0.299436 0.108099,-0.08739 0.198134,-0.19273 0.269675,-0.311453 0.05685,-0.09679 0.07642,-0.203551 0.08059,-0.314026 -1.12e-4,-0.114348 -0.03084,-0.223437 -0.08073,-0.32539 -0.06676,-0.126299 -0.156103,-0.238243 -0.25238,-0.343017 -0.124157,-0.129178 -0.26306,-0.24292 -0.402508,-0.354974 -0.159179,-0.127718 -0.324811,-0.246983 -0.492462,-0.363236 -0.185589,-0.124618 -0.375083,-0.24332 -0.566563,-0.358644 -0.208659,-0.125378 -0.422174,-0.242314 -0.637444,-0.355864 -0.231344,-0.123784 -0.466372,-0.240404 -0.70251,-0.354703 -0.254695,-0.123225 -0.51312,-0.238361 -0.772904,-0.350366 -0.04591,-0.01952 -0.09183,-0.03903 -0.137745,-0.05855 0,0 2.190171,-0.255633 2.190171,-0.255633 l 0,0 c 0.04538,0.02004 0.09076,0.04008 0.136145,0.06013 0.257152,0.11585 0.513081,0.234493 0.765384,0.360623 0.234404,0.117443 0.46734,0.237813 0.697379,0.363628 0.213059,0.117971 0.42398,0.239823 0.630455,0.36904 0.190275,0.119885 0.379682,0.241471 0.561618,0.373818 0.166149,0.121715 0.330258,0.246401 0.486711,0.380485 0.140576,0.122009 0.27894,0.247855 0.394467,0.394585 0.09683,0.127146 0.18791,0.259919 0.245774,0.410012 0.04608,0.134234 0.07972,0.272363 0.07804,0.415372 -0.0044,0.140099 -0.02377,0.279017 -0.07946,0.408966 -0.06515,0.144636 -0.149648,0.27767 -0.261327,0.391491 -0.138769,0.135567 -0.289112,0.257417 -0.459691,0.351492 -0.195839,0.109821 -0.395808,0.21181 -0.602324,0.300248 -0.215879,0.09575 -0.432652,0.189651 -0.65347,0.273553 -0.223165,0.08523 -0.447623,0.167081 -0.675419,0.239219 -0.226994,0.07383 -0.454965,0.144661 -0.68406,0.211713 -0.231636,0.06639 -0.463165,0.133334 -0.697363,0.190273 -0.233434,0.05698 -0.467392,0.111742 -0.701453,0.166086 -0.237851,0.05554 -0.475735,0.111034 -0.712557,0.170847 -0.232172,0.05875 -0.464055,0.1187 -0.694514,0.183906 -0.210974,0.06093 -0.421224,0.12496 -0.627641,0.200088 -0.171397,0.06551 -0.341738,0.134776 -0.503281,0.222388 -0.129256,0.07333 -0.255544,0.153087 -0.369024,0.249543 -0.08711,0.07454 -0.171191,0.153513 -0.233259,0.250949 -0.04701,0.07979 -0.08837,0.162507 -0.0977,0.256187 -0.0067,0.09657 0.0069,0.1843546 0.06194,0.2667852 0.08272,0.1231542 0.186306,0.2280832 0.305558,0.3166541 0.173981,0.1275073 0.357613,0.2409729 0.549263,0.3401501 0.233773,0.1191132 0.472352,0.2284788 0.717667,0.321906 0.263938,0.1016476 0.530316,0.1965692 0.796297,0.2927024 0.263447,0.09646 0.526727,0.193428 0.788417,0.294582 0.25297,0.09763 0.504781,0.198183 0.755826,0.300663 0.241417,0.09778 0.482824,0.195689 0.721164,0.300815 0.222478,0.09897 0.444025,0.200149 0.662515,0.307691 0.203349,0.101739 0.405782,0.206276 0.596372,0.330804 0.16912,0.111934 0.336012,0.228208 0.485537,0.365907 0.129856,0.121705 0.251505,0.251581 0.35691,0.395387 0.09565,0.132272 0.183853,0.270628 0.24621,0.422132 0.0555,0.144776 0.09892,0.294051 0.105478,0.450072 0.0037,0.154899 -0.01157,0.308288 -0.06965,0.453547 -0.06376,0.153748 -0.146229,0.298672 -0.257882,0.423232 -0.128537,0.139226 -0.271014,0.264059 -0.427911,0.370774 -0.171577,0.115624 -0.348091,0.224076 -0.534044,0.315301 -0.191257,0.09328 -0.385599,0.180107 -0.585638,0.253062 -0.201551,0.07396 -0.403934,0.145635 -0.606603,0.216472 -0.201832,0.06973 -0.404003,0.138481 -0.605631,0.208804 -0.202507,0.06965 -0.404735,0.140136 -0.605708,0.214121 -0.200964,0.07486 -0.401142,0.151833 -0.599232,0.234048 -0.19279,0.08146 -0.383898,0.166982 -0.572811,0.257082 -0.181261,0.08748 -0.362176,0.176241 -0.537043,0.276045 -0.153994,0.09241 -0.305496,0.190061 -0.43929,0.310744 -0.119728,0.106674 -0.238436,0.215603 -0.334766,0.344688 -0.08383,0.117147 -0.166143,0.236461 -0.218394,0.371768 -0.05021,0.128274 -0.08779,0.260681 -0.09689,0.398895 -0.01041,0.140532 -0.0112,0.281762 0.0076,0.421741 0.02023,0.149705 0.05036,0.297666 0.09599,0.441896 0.04698,0.154516 0.09793,0.30781 0.156929,0.458209 0.0584,0.149753 0.119766,0.298408 0.188841,0.443606 0.06619,0.13934 0.134129,0.277899 0.209153,0.412749 0.06793,0.121203 0.138915,0.240669 0.216052,0.356291 0.06815,0.102212 0.13768,0.203514 0.210248,0.302657 0.06027,0.08122 0.121782,0.161609 0.190265,0.236177 0.05153,0.05592 0.104011,0.110923 0.160249,0.162177 0.03941,0.03357 0.07829,0.068 0.119978,0.09871 0.02463,0.02041 0.05049,0.03909 0.07424,0.06033 0,0 -2.095346,0.191152 -2.095346,0.191152 z"
       inkscape:connector-curvature="0"
       transform="matrix(0.99880416,0,0,1.1115772,-0.33120722,1.9988851)" />
    <path
       style="fill:#ce0000;fill-opacity:1;stroke:#000000;stroke-width:0.30000001;stroke-linecap:butt;stroke-linejoin:miter;stroke-miterlimit:1;stroke-opacity:1;stroke-dasharray:none;stroke-dashoffset:0;filter:url(#filter11312)"
       id="path11065-4-5"
       d="m 37.583674,21.430273 c -0.02834,-0.01809 -0.05435,-0.03985 -0.08164,-0.0599 -0.04389,-0.03815 -0.08827,-0.07536 -0.129268,-0.116688 -0.06083,-0.05677 -0.117349,-0.118011 -0.171753,-0.180898 -0.07167,-0.08112 -0.136264,-0.16817 -0.200054,-0.255525 -0.07524,-0.102379 -0.14764,-0.206726 -0.217413,-0.312893 -0.08049,-0.120459 -0.153097,-0.245791 -0.222903,-0.372654 -0.07727,-0.139235 -0.146777,-0.282527 -0.214545,-0.426558 -0.06984,-0.15052 -0.131751,-0.304534 -0.190494,-0.459666 -0.0601,-0.155842 -0.111009,-0.314887 -0.157115,-0.475352 -0.04607,-0.155911 -0.07401,-0.315882 -0.0926,-0.477122 -0.01785,-0.154095 -0.01621,-0.309166 -0.0057,-0.463635 0.0104,-0.157214 0.04713,-0.309827 0.0975,-0.458533 0.05251,-0.151697 0.13116,-0.291198 0.21804,-0.425396 0.09341,-0.144801 0.209499,-0.272135 0.331915,-0.392583 0.133111,-0.13184 0.281819,-0.245382 0.43625,-0.350757 0.169805,-0.113839 0.351635,-0.207793 0.533561,-0.30037 0.188162,-0.09518 0.380169,-0.182408 0.572749,-0.268189 0.19716,-0.08721 0.397591,-0.166723 0.598667,-0.244378 0.201133,-0.07692 0.404035,-0.14909 0.60728,-0.220204 0.201697,-0.07011 0.403592,-0.13964 0.605479,-0.209197 0.202709,-0.06964 0.404742,-0.141228 0.606629,-0.213211 0.198291,-0.06913 0.392891,-0.147864 0.584569,-0.233491 0.185109,-0.08241 0.362019,-0.181081 0.534985,-0.286222 0.155171,-0.09373 0.298512,-0.204269 0.433489,-0.324854 0.109756,-0.09823 0.194354,-0.21698 0.2631,-0.346272 0.05754,-0.110857 0.07488,-0.230558 0.07083,-0.353765 -0.009,-0.130458 -0.05247,-0.252867 -0.107477,-0.370216 -0.06617,-0.133415 -0.155529,-0.252142 -0.249399,-0.366889 C 41.933873,12.331317 41.807888,12.219089 41.677151,12.112281 41.521917,11.989258 41.354656,11.882784 41.184692,11.781555 40.989307,11.669233 40.786148,11.571261 40.582407,11.475228 40.361967,11.37164 40.139462,11.272535 39.915289,11.17732 39.674281,11.076205 39.431058,10.98052 39.188582,10.883011 38.937706,10.779759 38.684331,10.682878 38.430751,10.586543 38.167594,10.487793 37.90345,10.3917 37.639175,10.295995 37.371633,10.202805 37.106223,10.104088 36.844041,9.9967494 36.599474,9.8976698 36.36361,9.7790266 36.13485,9.6478694 35.944113,9.5386038 35.764382,9.4122656 35.601503,9.2647494 35.477517,9.1521085 35.382469,9.0158519 35.312411,8.8645876 c -0.05547,-0.1233102 -0.06292,-0.2559644 -0.05461,-0.3887744 0.009,-0.120964 0.04839,-0.234591 0.09853,-0.343923 0.0566,-0.120035 0.138714,-0.223712 0.227936,-0.320794 0.108019,-0.113692 0.233689,-0.207318 0.362539,-0.295699 0.155156,-0.103897 0.323852,-0.184574 0.494157,-0.260024 0.201511,-0.08771 0.410523,-0.156157 0.619839,-0.222375 0.228288,-0.07073 0.459116,-0.132856 0.690229,-0.193575 0.236919,-0.06209 0.47509,-0.119208 0.713436,-0.175512 0.234257,-0.05489 0.468719,-0.108903 0.702781,-0.164616 0.233429,-0.05478 0.464997,-0.116903 0.695812,-0.181698 0.229344,-0.06419 0.457187,-0.133537 0.684492,-0.204557 0.226379,-0.07055 0.450625,-0.147486 0.673352,-0.228759 0.220854,-0.08046 0.438321,-0.169651 0.654499,-0.261817 0.205641,-0.08689 0.408017,-0.180888 0.606984,-0.282067 0.167113,-0.0835 0.324889,-0.183009 0.470809,-0.299436 0.108099,-0.08739 0.198134,-0.192729 0.269675,-0.311453 0.05685,-0.09679 0.07642,-0.203551 0.08059,-0.314025 -1.12e-4,-0.114349 -0.03084,-0.223438 -0.08073,-0.325391 -0.06676,-0.126299 -0.156103,-0.238243 -0.25238,-0.343017 -0.124157,-0.129178 -0.26306,-0.24292 -0.402508,-0.354974 -0.159179,-0.127718 -0.324811,-0.246983 -0.492462,-0.363236 -0.185589,-0.124618 -0.375083,-0.24332 -0.566563,-0.358644 -0.208659,-0.125378 -0.422174,-0.242314 -0.637444,-0.355864 -0.231344,-0.123784 -0.466372,-0.240404 -0.70251,-0.354703 -0.254695,-0.123225 -0.51312,-0.238361 -0.772904,-0.350365 -0.04591,-0.01952 -0.09183,-0.03903 -0.137745,-0.05855 0,0 2.190171,-0.255634 2.190171,-0.255634 l 0,0 c 0.04538,0.02004 0.09076,0.04008 0.136145,0.06013 0.257152,0.11585 0.513081,0.234494 0.765384,0.360623 0.234404,0.117443 0.46734,0.237813 0.697379,0.363628 0.213059,0.117971 0.42398,0.239823 0.630455,0.36904 0.190275,0.119885 0.379682,0.241471 0.561618,0.373818 0.166149,0.121716 0.330258,0.246402 0.486711,0.380486 0.140576,0.122008 0.27894,0.247854 0.394467,0.394584 0.09683,0.127146 0.18791,0.259919 0.245774,0.410012 0.04608,0.134234 0.07972,0.272363 0.07804,0.415372 -0.0044,0.1401 -0.02377,0.279017 -0.07946,0.408967 -0.06515,0.144635 -0.149648,0.27767 -0.261327,0.39149 -0.138769,0.135567 -0.289112,0.257417 -0.459691,0.351492 -0.195839,0.109821 -0.395808,0.21181 -0.602324,0.300248 -0.215879,0.09575 -0.432652,0.189651 -0.65347,0.273554 -0.223165,0.08523 -0.447623,0.16708 -0.675419,0.239218 -0.226994,0.07383 -0.454965,0.144661 -0.68406,0.211713 -0.231636,0.06639 -0.463165,0.133335 -0.697363,0.190273 -0.233434,0.05698 -0.467392,0.111742 -0.701453,0.166086 -0.237851,0.05554 -0.475735,0.111034 -0.712557,0.170847 -0.232172,0.05875 -0.464055,0.1187 -0.694514,0.183906 -0.210974,0.06093 -0.421224,0.12496 -0.627641,0.200088 -0.171397,0.06551 -0.341738,0.134776 -0.503281,0.222388 -0.129256,0.07333 -0.255544,0.153087 -0.369024,0.249543 -0.08711,0.07454 -0.171191,0.153513 -0.233259,0.250949 -0.04701,0.07979 -0.08837,0.162507 -0.0977,0.256187 -0.0067,0.09657 0.0069,0.1843556 0.06194,0.2667852 0.08272,0.1231542 0.186306,0.2280832 0.305558,0.3166541 0.173981,0.1275073 0.357613,0.2409729 0.549263,0.3401501 0.233773,0.1191132 0.472352,0.2284788 0.717667,0.321906 0.263938,0.1016476 0.530316,0.1965692 0.796297,0.2927024 0.263447,0.09646 0.526727,0.193428 0.788417,0.294582 0.25297,0.09763 0.504781,0.198183 0.755826,0.300663 0.241417,0.09778 0.482824,0.195689 0.721164,0.300815 0.222478,0.09897 0.444025,0.200149 0.662515,0.307691 0.203349,0.101739 0.405782,0.206276 0.596372,0.330804 0.16912,0.111934 0.336012,0.228208 0.485537,0.365907 0.129856,0.121705 0.251505,0.251581 0.35691,0.395387 0.09565,0.132272 0.183853,0.270628 0.24621,0.422132 0.0555,0.144776 0.09892,0.294051 0.105478,0.450072 0.0037,0.154899 -0.01157,0.308288 -0.06965,0.453547 -0.06376,0.153748 -0.146229,0.298672 -0.257882,0.423232 -0.128537,0.139226 -0.271014,0.264059 -0.427911,0.370774 -0.171577,0.115624 -0.348091,0.224076 -0.534044,0.315301 -0.191257,0.09328 -0.385599,0.180107 -0.585638,0.253062 -0.201551,0.07396 -0.403934,0.145635 -0.606603,0.216472 -0.201832,0.06973 -0.404003,0.138481 -0.605631,0.208804 -0.202507,0.06965 -0.404735,0.140136 -0.605708,0.214121 -0.200964,0.07486 -0.401142,0.151833 -0.599232,0.234048 -0.19279,0.08146 -0.383898,0.166982 -0.572811,0.257082 -0.181261,0.08748 -0.362176,0.176241 -0.537043,0.276045 -0.153994,0.09241 -0.305496,0.190061 -0.43929,0.310744 -0.119728,0.106674 -0.238436,0.215603 -0.334766,0.344688 -0.08383,0.117147 -0.166143,0.236461 -0.218394,0.371768 -0.05021,0.128274 -0.08779,0.260681 -0.09689,0.398895 -0.01041,0.140532 -0.0112,0.281762 0.0076,0.421741 0.02023,0.149705 0.05036,0.297666 0.09599,0.441896 0.04698,0.154516 0.09793,0.30781 0.156929,0.458209 0.0584,0.149753 0.119766,0.298408 0.188841,0.443606 0.06619,0.13934 0.134129,0.277899 0.209153,0.412749 0.06793,0.121203 0.138915,0.240669 0.216052,0.356291 0.06815,0.102212 0.13768,0.203514 0.210248,0.302657 0.06027,0.08122 0.121782,0.161609 0.190265,0.236177 0.05153,0.05592 0.104011,0.110923 0.160249,0.162177 0.03941,0.03357 0.07829,0.068 0.119978,0.09871 0.02463,0.02041 0.05049,0.03909 0.07424,0.06033 0,0 -2.095346,0.191152 -2.095346,0.191152 z"
       inkscape:connector-curvature="0"
       transform="matrix(0.99880416,0,0,1.1115772,-0.33120722,1.9988851)" />
    <rect
       style="fill:#000000;fill-opacity:1;stroke:#000000;stroke-width:0.35546711;stroke-linecap:butt;stroke-linejoin:round;stroke-miterlimit:4;stroke-opacity:1;stroke-dasharray:none;stroke-dashoffset:0"
       id="rect3082"
       width="44.000004"
       height="5.00001"
       x="2"
       y="38" />
  </g>
</svg>
