<?xml version="1.0" encoding="UTF-8" standalone="no"?>
<!-- Created with Inkscape (http://www.inkscape.org/) -->

<svg
   xmlns:dc="http://purl.org/dc/elements/1.1/"
   xmlns:cc="http://creativecommons.org/ns#"
   xmlns:rdf="http://www.w3.org/1999/02/22-rdf-syntax-ns#"
   xmlns:svg="http://www.w3.org/2000/svg"
   xmlns="http://www.w3.org/2000/svg"
   xmlns:sodipodi="http://sodipodi.sourceforge.net/DTD/sodipodi-0.dtd"
   xmlns:inkscape="http://www.inkscape.org/namespaces/inkscape"
   width="48px"
   height="48px"
   id="svg2985"
   version="1.1"
   inkscape:version="0.48.4 r9939"
   sodipodi:docname="SourceShape.svg"
   inkscape:export-filename="D:\Gladkikh\Python\OptolithiumGui\icons\SourceShape.png"
   inkscape:export-xdpi="90"
   inkscape:export-ydpi="90">
  <defs
     id="defs2987">
    <filter
       id="filter11069-5"
       inkscape:label="Darken edges"
       inkscape:menu="Shadows and Glows"
       inkscape:menu-tooltip="Darken the edges with an inner blur"
       color-interpolation-filters="sRGB">
      <feGaussianBlur
         id="feGaussianBlur11071-2"
         result="result6"
         stdDeviation="1.5" />
      <feComposite
         id="feComposite11073-1"
         in2="result6"
         operator="atop"
         in="SourceGraphic"
         result="result8" />
      <feComposite
         id="feComposite11075-9"
         in2="SourceAlpha"
         in="result8"
         operator="atop"
         result="result9" />
    </filter>
    <filter
       id="filter11069-5-4"
       inkscape:label="Darken edges"
       inkscape:menu="Shadows and Glows"
       inkscape:menu-tooltip="Darken the edges with an inner blur"
       color-interpolation-filters="sRGB">
      <feGaussianBlur
         id="feGaussianBlur11071-2-0"
         result="result6"
         stdDeviation="1.5" />
      <feComposite
         id="feComposite11073-1-9"
         in2="result6"
         operator="atop"
         in="SourceGraphic"
         result="result8" />
      <feComposite
         id="feComposite11075-9-4"
         in2="SourceAlpha"
         in="result8"
         operator="atop"
         result="result9" />
    </filter>
    <filter
       inkscape:collect="always"
       id="filter4149"
       x="-0.20869565"
       width="1.4173913"
       y="-0.20869565"
       height="1.4173913">
      <feGaussianBlur
         inkscape:collect="always"
         stdDeviation="3.0815217"
         id="feGaussianBlur4151" />
    </filter>
    <filter
       inkscape:collect="always"
       id="filter4157"
       x="-0.12521739"
       width="1.2504348"
       y="-0.12521739"
       height="1.2504348">
      <feGaussianBlur
         inkscape:collect="always"
         stdDeviation="1.848913"
         id="feGaussianBlur4159" />
    </filter>
    <filter
       inkscape:collect="always"
       id="filter4161">
      <feGaussianBlur
         inkscape:collect="always"
         stdDeviation="0.23111413"
         id="feGaussianBlur4163" />
    </filter>
    <filter
       inkscape:collect="always"
       id="filter4169">
      <feGaussianBlur
         inkscape:collect="always"
         stdDeviation="0.84283051"
         id="feGaussianBlur4171" />
    </filter>
  </defs>
  <sodipodi:namedview
     id="base"
     pagecolor="#ffffff"
     bordercolor="#666666"
     borderopacity="1.0"
     inkscape:pageopacity="0.0"
     inkscape:pageshadow="2"
     inkscape:zoom="19.054932"
     inkscape:cx="19.948086"
     inkscape:cy="23.700487"
     inkscape:current-layer="layer1"
     showgrid="true"
     inkscape:grid-bbox="true"
     inkscape:document-units="px"
     inkscape:snap-global="true"
     inkscape:snap-page="true"
     inkscape:object-paths="false"
     inkscape:snap-bbox="true"
     inkscape:window-width="1920"
     inkscape:window-height="1144"
     inkscape:window-x="-4"
     inkscape:window-y="-4"
     inkscape:window-maximized="1"
     inkscape:snap-object-midpoints="false"
     inkscape:snap-center="false"
     inkscape:snap-grids="true"
     inkscape:object-nodes="false"
     inkscape:snap-nodes="true">
    <inkscape:grid
       type="xygrid"
       id="grid2993" />
  </sodipodi:namedview>
  <metadata
     id="metadata2990">
    <rdf:RDF>
      <cc:Work
         rdf:about="">
        <dc:format>image/svg+xml</dc:format>
        <dc:type
           rdf:resource="http://purl.org/dc/dcmitype/StillImage" />
        <dc:title></dc:title>
      </cc:Work>
    </rdf:RDF>
  </metadata>
  <g
     id="layer1"
     inkscape:label="Layer 1"
     inkscape:groupmode="layer">
    <path
       id="path4135"
       d="M 31.34375 6.28125 L 27.96875 14.4375 C 30.498503 15.487215 32.512785 17.501497 33.5625 20.03125 L 41.6875 16.625 C 41.675023 16.595077 41.668874 16.561096 41.65625 16.53125 C 41.422747 15.979186 41.188551 15.430463 40.90625 14.90625 C 40.895127 14.88556 40.886196 14.864393 40.875 14.84375 C 40.586673 14.312988 40.272985 13.811499 39.9375 13.3125 C 39.929363 13.300391 39.914413 13.293339 39.90625 13.28125 C 39.216961 12.260969 38.430138 11.305138 37.5625 10.4375 C 36.826625 9.7016245 36.003331 9.0464864 35.15625 8.4375 C 35.006255 8.3301848 34.871978 8.1968267 34.71875 8.09375 C 34.699441 8.0807051 34.675609 8.0754763 34.65625 8.0625 C 34.136136 7.7153221 33.617502 7.3902187 33.0625 7.09375 C 32.658507 6.8779471 32.233521 6.6875121 31.8125 6.5 C 31.655675 6.4299613 31.502767 6.3471672 31.34375 6.28125 z M 16.625 6.3125 C 16.595077 6.3249769 16.561096 6.3311261 16.53125 6.34375 C 15.981124 6.5764217 15.427878 6.8133122 14.90625 7.09375 C 14.690491 7.2099414 14.491948 7.3446346 14.28125 7.46875 C 13.951825 7.6625637 13.628645 7.8500597 13.3125 8.0625 C 12.278626 8.7575891 11.315291 9.5597088 10.4375 10.4375 C 9.7016245 11.173375 9.0464864 11.996669 8.4375 12.84375 C 8.3284575 12.995425 8.1984279 13.126306 8.09375 13.28125 C 8.0809496 13.300278 8.0752343 13.324672 8.0625 13.34375 C 7.7153221 13.863864 7.3902187 14.382498 7.09375 14.9375 C 6.8166606 15.453863 6.5735536 15.987933 6.34375 16.53125 C 6.3256181 16.574206 6.2990834 16.613131 6.28125 16.65625 L 14.4375 20.03125 C 15.487215 17.501497 17.501497 15.487215 20.03125 14.4375 L 16.625 6.3125 z M 14.4375 27.96875 L 6.3125 31.375 C 6.3249769 31.404923 6.3311261 31.438904 6.34375 31.46875 C 6.5799605 32.027243 6.8083301 32.595898 7.09375 33.125 C 7.2057651 33.332269 7.3494128 33.516163 7.46875 33.71875 C 7.6625637 34.048175 7.8500597 34.371355 8.0625 34.6875 C 8.7575891 35.721374 9.5597088 36.684709 10.4375 37.5625 C 11.173375 38.298375 11.996669 38.953514 12.84375 39.5625 C 12.995425 39.671543 13.126306 39.801572 13.28125 39.90625 C 13.300278 39.91905 13.324672 39.924766 13.34375 39.9375 C 13.863864 40.284678 14.382498 40.609781 14.9375 40.90625 C 15.493753 41.204745 16.068841 41.475251 16.65625 41.71875 L 20.03125 33.5625 C 17.501497 32.512785 15.487215 30.498503 14.4375 27.96875 z M 33.5625 27.96875 C 32.512785 30.498503 30.498503 32.512785 27.96875 33.5625 L 31.375 41.6875 C 31.404923 41.675023 31.438904 41.668874 31.46875 41.65625 C 32.020814 41.422747 32.569537 41.188551 33.09375 40.90625 C 33.11444 40.895127 33.135607 40.886196 33.15625 40.875 C 33.687012 40.586673 34.188501 40.272985 34.6875 39.9375 C 34.699609 39.929363 34.706661 39.914413 34.71875 39.90625 C 35.739031 39.216961 36.694862 38.430138 37.5625 37.5625 C 38.298375 36.826625 38.953514 36.003331 39.5625 35.15625 C 39.669815 35.006255 39.803173 34.871978 39.90625 34.71875 C 39.919295 34.699441 39.924524 34.675609 39.9375 34.65625 C 40.284678 34.136136 40.609781 33.617502 40.90625 33.0625 C 41.122053 32.658507 41.312488 32.233521 41.5 31.8125 C 41.570039 31.655675 41.652833 31.502767 41.71875 31.34375 L 33.5625 27.96875 z "
       style="fill:#0064e1;fill-opacity:1;stroke:#000000;stroke-width:0.29999999999999999;stroke-linecap:butt;stroke-linejoin:miter;stroke-miterlimit:4;stroke-opacity:1;stroke-dasharray:none;filter:url(#filter4149)" />
    <path
       id="path4114"
       d="M 31.34375 6.28125 L 27.96875 14.4375 C 30.498503 15.487215 32.512785 17.501497 33.5625 20.03125 L 41.6875 16.625 C 41.675023 16.595077 41.668874 16.561096 41.65625 16.53125 C 41.422747 15.979186 41.188551 15.430463 40.90625 14.90625 C 40.895127 14.88556 40.886196 14.864393 40.875 14.84375 C 40.586673 14.312988 40.272985 13.811499 39.9375 13.3125 C 39.929363 13.300391 39.914413 13.293339 39.90625 13.28125 C 39.216961 12.260969 38.430138 11.305138 37.5625 10.4375 C 36.826625 9.7016245 36.003331 9.0464864 35.15625 8.4375 C 35.006255 8.3301848 34.871978 8.1968267 34.71875 8.09375 C 34.699441 8.0807051 34.675609 8.0754763 34.65625 8.0625 C 34.136136 7.7153221 33.617502 7.3902187 33.0625 7.09375 C 32.658507 6.8779471 32.233521 6.6875121 31.8125 6.5 C 31.655675 6.4299613 31.502767 6.3471672 31.34375 6.28125 z M 16.625 6.3125 C 16.595077 6.3249769 16.561096 6.3311261 16.53125 6.34375 C 15.981124 6.5764217 15.427878 6.8133122 14.90625 7.09375 C 14.690491 7.2099414 14.491948 7.3446346 14.28125 7.46875 C 13.951825 7.6625637 13.628645 7.8500597 13.3125 8.0625 C 12.278626 8.7575891 11.315291 9.5597088 10.4375 10.4375 C 9.7016245 11.173375 9.0464864 11.996669 8.4375 12.84375 C 8.3284575 12.995425 8.1984279 13.126306 8.09375 13.28125 C 8.0809496 13.300278 8.0752343 13.324672 8.0625 13.34375 C 7.7153221 13.863864 7.3902187 14.382498 7.09375 14.9375 C 6.8166606 15.453863 6.5735536 15.987933 6.34375 16.53125 C 6.3256181 16.574206 6.2990834 16.613131 6.28125 16.65625 L 14.4375 20.03125 C 15.487215 17.501497 17.501497 15.487215 20.03125 14.4375 L 16.625 6.3125 z M 14.4375 27.96875 L 6.3125 31.375 C 6.3249769 31.404923 6.3311261 31.438904 6.34375 31.46875 C 6.5799605 32.027243 6.8083301 32.595898 7.09375 33.125 C 7.2057651 33.332269 7.3494128 33.516163 7.46875 33.71875 C 7.6625637 34.048175 7.8500597 34.371355 8.0625 34.6875 C 8.7575891 35.721374 9.5597088 36.684709 10.4375 37.5625 C 11.173375 38.298375 11.996669 38.953514 12.84375 39.5625 C 12.995425 39.671543 13.126306 39.801572 13.28125 39.90625 C 13.300278 39.91905 13.324672 39.924766 13.34375 39.9375 C 13.863864 40.284678 14.382498 40.609781 14.9375 40.90625 C 15.493753 41.204745 16.068841 41.475251 16.65625 41.71875 L 20.03125 33.5625 C 17.501497 32.512785 15.487215 30.498503 14.4375 27.96875 z M 33.5625 27.96875 C 32.512785 30.498503 30.498503 32.512785 27.96875 33.5625 L 31.375 41.6875 C 31.404923 41.675023 31.438904 41.668874 31.46875 41.65625 C 32.020814 41.422747 32.569537 41.188551 33.09375 40.90625 C 33.11444 40.895127 33.135607 40.886196 33.15625 40.875 C 33.687012 40.586673 34.188501 40.272985 34.6875 39.9375 C 34.699609 39.929363 34.706661 39.914413 34.71875 39.90625 C 35.739031 39.216961 36.694862 38.430138 37.5625 37.5625 C 38.298375 36.826625 38.953514 36.003331 39.5625 35.15625 C 39.669815 35.006255 39.803173 34.871978 39.90625 34.71875 C 39.919295 34.699441 39.924524 34.675609 39.9375 34.65625 C 40.284678 34.136136 40.609781 33.617502 40.90625 33.0625 C 41.122053 32.658507 41.312488 32.233521 41.5 31.8125 C 41.570039 31.655675 41.652833 31.502767 41.71875 31.34375 L 33.5625 27.96875 z "
       style="fill:#d4e100;fill-opacity:1;stroke:#000000;stroke-width:0.49999997000000002;stroke-linecap:round;stroke-linejoin:miter;stroke-miterlimit:4;stroke-opacity:1;stroke-dasharray:none;filter:url(#filter4157)" />
    <path
       style="fill:#e15200;fill-opacity:1;stroke:#6c6c6c;stroke-width:0.29999999999999999;stroke-linecap:butt;stroke-linejoin:miter;stroke-miterlimit:4;stroke-opacity:1;stroke-dasharray:none;filter:url(#filter4161)"
       d="M 31.34375 6.28125 L 27.96875 14.4375 C 30.498503 15.487215 32.512785 17.501497 33.5625 20.03125 L 41.6875 16.625 C 41.675023 16.595077 41.668874 16.561096 41.65625 16.53125 C 41.422747 15.979186 41.188551 15.430463 40.90625 14.90625 C 40.895127 14.88556 40.886196 14.864393 40.875 14.84375 C 40.586673 14.312988 40.272985 13.811499 39.9375 13.3125 C 39.929363 13.300391 39.914413 13.293339 39.90625 13.28125 C 39.216961 12.260969 38.430138 11.305138 37.5625 10.4375 C 36.826625 9.7016245 36.003331 9.0464864 35.15625 8.4375 C 35.006255 8.3301848 34.871978 8.1968267 34.71875 8.09375 C 34.699441 8.0807051 34.675609 8.0754763 34.65625 8.0625 C 34.136136 7.7153221 33.617502 7.3902187 33.0625 7.09375 C 32.658507 6.8779471 32.233521 6.6875121 31.8125 6.5 C 31.655675 6.4299613 31.502767 6.3471672 31.34375 6.28125 z M 16.625 6.3125 C 16.595077 6.3249769 16.561096 6.3311261 16.53125 6.34375 C 15.981124 6.5764217 15.427878 6.8133122 14.90625 7.09375 C 14.690491 7.2099414 14.491948 7.3446346 14.28125 7.46875 C 13.951825 7.6625637 13.628645 7.8500597 13.3125 8.0625 C 12.278626 8.7575891 11.315291 9.5597088 10.4375 10.4375 C 9.7016245 11.173375 9.0464864 11.996669 8.4375 12.84375 C 8.3284575 12.995425 8.1984279 13.126306 8.09375 13.28125 C 8.0809496 13.300278 8.0752343 13.324672 8.0625 13.34375 C 7.7153221 13.863864 7.3902187 14.382498 7.09375 14.9375 C 6.8166606 15.453863 6.5735536 15.987933 6.34375 16.53125 C 6.3256181 16.574206 6.2990834 16.613131 6.28125 16.65625 L 14.4375 20.03125 C 15.487215 17.501497 17.501497 15.487215 20.03125 14.4375 L 16.625 6.3125 z M 14.4375 27.96875 L 6.3125 31.375 C 6.3249769 31.404923 6.3311261 31.438904 6.34375 31.46875 C 6.5799605 32.027243 6.8083301 32.595898 7.09375 33.125 C 7.2057651 33.332269 7.3494128 33.516163 7.46875 33.71875 C 7.6625637 34.048175 7.8500597 34.371355 8.0625 34.6875 C 8.7575891 35.721374 9.5597088 36.684709 10.4375 37.5625 C 11.173375 38.298375 11.996669 38.953514 12.84375 39.5625 C 12.995425 39.671543 13.126306 39.801572 13.28125 39.90625 C 13.300278 39.91905 13.324672 39.924766 13.34375 39.9375 C 13.863864 40.284678 14.382498 40.609781 14.9375 40.90625 C 15.493753 41.204745 16.068841 41.475251 16.65625 41.71875 L 20.03125 33.5625 C 17.501497 32.512785 15.487215 30.498503 14.4375 27.96875 z M 33.5625 27.96875 C 32.512785 30.498503 30.498503 32.512785 27.96875 33.5625 L 31.375 41.6875 C 31.404923 41.675023 31.438904 41.668874 31.46875 41.65625 C 32.020814 41.422747 32.569537 41.188551 33.09375 40.90625 C 33.11444 40.895127 33.135607 40.886196 33.15625 40.875 C 33.687012 40.586673 34.188501 40.272985 34.6875 39.9375 C 34.699609 39.929363 34.706661 39.914413 34.71875 39.90625 C 35.739031 39.216961 36.694862 38.430138 37.5625 37.5625 C 38.298375 36.826625 38.953514 36.003331 39.5625 35.15625 C 39.669815 35.006255 39.803173 34.871978 39.90625 34.71875 C 39.919295 34.699441 39.924524 34.675609 39.9375 34.65625 C 40.284678 34.136136 40.609781 33.617502 40.90625 33.0625 C 41.122053 32.658507 41.312488 32.233521 41.5 31.8125 C 41.570039 31.655675 41.652833 31.502767 41.71875 31.34375 L 33.5625 27.96875 z "
       id="path3965" />
    <path
       style="fill:#e10012;fill-opacity:1;stroke:none;stroke-width:0.30000000999999998;stroke-linecap:butt;stroke-linejoin:miter;stroke-miterlimit:4;stroke-opacity:1;stroke-dasharray:none;filter:url(#filter4169)"
       d="m 30.5,13.5 c 2.667176,1.060256 3.585379,5.818816 6.769231,2.814904 C 41.138843,15.146495 35.133273,11.185383 33.5625,9.71875 31.480478,7.5095131 31.576736,12.492422 30.5,13.5 z M 15.3125,9.1875 C 12.659805,10.663294 10.518415,13.014577 9,15.625 c 3.186914,2.365063 5.108897,1.732514 7.15625,-1.15625 2.664418,-1.021622 -0.259134,-4.191075 -0.84375,-5.28125 z m 18.96875,21.65625 c -1.174346,2.460115 -5.530682,3.35635 -2.596154,6.425481 1.168409,3.869612 5.129521,-2.135958 6.596154,-3.706731 2.230634,-1.722436 -3.328605,-2.837555 -4,-2.71875 z M 9,32.40625 C 10.534633,35.167696 12.901992,37.433302 15.625,39 17.990063,35.813086 17.357514,33.891103 14.46875,31.84375 13.29657,29.14225 11.026713,32.126195 9,32.40625 z"
       id="path4165"
       inkscape:connector-curvature="0" />
  </g>
</svg>
